<?xml version="1.0" encoding="UTF-8" standalone="no"?>
<svg
   xmlns:dc="http://purl.org/dc/elements/1.1/"
   xmlns:cc="http://creativecommons.org/ns#"
   xmlns:rdf="http://www.w3.org/1999/02/22-rdf-syntax-ns#"
   xmlns:svg="http://www.w3.org/2000/svg"
   xmlns="http://www.w3.org/2000/svg"
   height="864"
   width="2700.5"
   xml:space="preserve"
   viewBox="0 0 2700.5 864"
   y="0px"
   x="0px"
   id="Layer_1"
   version="1.1"><metadata
     id="metadata3375"><rdf:RDF><cc:Work
         rdf:about=""><dc:format>image/svg+xml</dc:format><dc:type
           rdf:resource="http://purl.org/dc/dcmitype/StillImage" /><dc:title></dc:title></cc:Work></rdf:RDF></metadata><defs
     id="defs3373" /><path
     style="fill:#ffffff"
     id="path3337"
     d="m 571,300.8 c 0,-0.1 0,-0.3 -0.1,-0.5 -0.1,-1.3 -0.4,-2.6 -0.7,-3.9 -0.1,-0.9 -0.4,-2.7 -0.8,-4.9 0,-0.1 0,-0.2 0,-0.3 0,-0.1 -0.1,-0.3 -0.1,-0.4 -0.2,-1.1 -0.5,-2.3 -0.8,-3.5 0,-0.1 0,-0.3 -0.1,-0.5 0,-0.2 -0.1,-0.4 -0.1,-0.6 0.1,-0.1 0.1,-0.3 0.1,-0.8 0,-0.2 0,-0.4 -0.1,-0.6 -0.5,-1.4 -1.2,-2.8 -1.4,-4.2 -0.7,-6 -4.1,-11 -6.2,-16.4 -0.1,-0.3 0.1,0.1 -0.7,-1 -0.4,-0.6 -0.3,-0.7 -0.9,-1.5 -0.7,-0.9 -1.2,-1.3 -1.5,-2.2 -0.1,-0.2 0,-0.1 -0.4,-0.7 -1.3,-2.2 -2.7,-4.3 -4,-6.4 0,0 -0.1,-0.1 -0.1,-0.1 0,0 0,0 0,0 -0.5,-1 -4.4,-6.1 -5,-6.9 -1,-1.2 -2.2,-2.2 -3.7,-3.8 -1.2,-1 -3,-2.4 -4.8,-3.8 -1.8,-1.5 -3.3,-3.3 -5.3,-4.5 -5.7,-3.5 -12.7,-4.4 -18,-8.7 -0.4,-0.3 -5.6,-0.9 -5.8,-1.9 0.2,1.3 2.4,3.7 3.2,5.4 0.1,0.3 0.2,0.7 0.4,1.1 0.7,2 3,2.7 4.5,3.8 8.6,6.1 14.7,14.8 21.9,22.1 0.2,0.5 0.7,0.9 1.2,1.1 0,0 0.1,0 0.1,0.1 -0.1,0 -0.1,0 -0.2,0 0.5,0.8 1.1,1.6 1.6,2.3 0.1,0.2 0.2,0.4 0.3,0.6 4.4,6.7 8.3,12.7 8.9,20.5 0.1,1.4 0.3,2.8 0.3,3.9 -0.1,-1.7 0,1.2 0.4,2.3 0.1,0.2 0.2,0.5 0.3,0.7 1.8,7.6 1,15 1.1,22.4 l -0.1,0.4 -0.1,0.3 c -0.7,3.6 -1.5,7.2 -2.2,10.8 -0.1,0.3 -0.1,0.6 0,0.9 0,0 0,0 0,0 -1,3.2 -2.1,6.5 -3.1,9.7 -0.2,0.1 -0.1,-0.1 -1.1,1.2 -0.8,1.1 -2.3,3.4 -2.5,4.7 -4.6,-1.1 -9.1,-2.1 -14,-3.3 -0.1,0.1 -4.3,-1.1 -5.8,-1.3 0,0 -0.1,0 -0.1,-0.1 -0.1,0 -0.1,0 -0.2,0 l 0,0 0,0 c -0.5,0.1 -1,0.2 -1.5,0.3 -0.7,-0.1 -1.7,-0.1 -2.2,0 -3.4,-0.9 -6.8,-0.9 -10.1,-0.1 -0.1,0 -0.2,0 -0.3,0 -0.2,0 -0.7,0 -1,0.2 -1.1,0.2 -8.9,4.5 -9.7,5 -5.3,3.9 -11.2,7.3 -14.7,13.3 -4.6,6.2 -9.9,12.1 -13.7,18.7 -4,6.9 -8.8,12.3 -16.3,15.1 -1.1,0.4 -1.9,1.5 -2.8,2.3 -0.8,0.4 -1.6,0.7 -2.4,1.1 l -0.1,0 c -2,1.5 -4.2,2.8 -5.9,4.6 -4.1,4.4 -8.1,8.8 -11.7,13.5 -2,2.6 -5.4,4 -6,7.6 -1.8,2 -3.7,4 -6.2,6.7 -1.7,1.4 -4.2,3.4 -6.7,5.5 -3.5,2.5 -7,5 -10.6,7.4 -3.5,2.3 -7.2,4.5 -10.9,6.6 -6.2,3.4 -12.5,6.6 -18.7,9.9 -3.8,-0.1 -7.7,-0.4 -11.5,-0.3 -0.8,0 -1.7,0.9 -2.5,1.5 -1.6,1.4 -3.1,2.9 -4.8,4.5 -1.2,0.5 -2.5,1.1 -3.9,1.5 -6,1.8 -9.7,8.1 -16.1,9.3 0,0 0,0 0,0 0,0 0,0 -0.1,0 -0.3,0 -0.8,0.1 -1,0.5 l 0,0 c -1.9,1.1 -3.9,2.2 -5.8,3.3 -3.4,1.5 -7,2.9 -10.3,4.6 -1.1,0.6 -1.8,2 -2.7,3.1 -1.9,0.4 -3.9,0.8 -5.8,1.2 -2.7,0.6 -5.3,1.3 -8.2,2 0,2 0,3.5 0,5 -1.2,1.6 -3.3,2.9 -1.5,5.6 1.6,-1.2 3.2,-2.3 4.7,-3.4 l 0,0 0,0 c 2.5,3.6 2,7.2 0.2,11.5 4.7,-1.6 9.1,-3.2 13.5,-4.7 0,3.3 -0.1,6.4 1.3,9.7 0.9,2.1 0.5,5.4 -0.5,7.6 -3.6,7.9 -9.8,13.4 -17.4,17.5 -2,1.1 -3.6,2.8 -5.4,4.2 -0.6,2.3 -2.9,4.2 -2,6.9 -1,5.3 -2.6,10.5 -2.2,16 0,0.5 -0.3,0.9 -0.4,1.4 -0.6,2.2 -1.2,4.4 -1.8,6.5 0.1,2.1 0.2,4.2 0.2,6.2 -0.5,2.6 -0.9,5.1 1.9,6.8 -1.7,2.4 0.1,4 1.1,5.8 0.4,0.8 1.1,1.1 1.9,1.2 1.3,-0.2 2.5,-0.5 3.7,-1.1 0.1,0.2 0.3,0.5 0.4,0.7 1.8,2.8 3.9,3.3 6.5,1 0,-1.3 0,-2.6 0,-3.9 -0.1,0 -0.3,0.1 -0.4,0.1 -0.7,-1.8 -1.4,-3.6 -2.2,-5.4 0.3,-0.3 0.6,-0.6 0.9,-0.9 0.9,-2.1 1,-4.4 1.4,-6.6 0.1,-1.4 0.1,-2.9 0.2,-4.3 0.7,-4.9 1.5,-9.8 4.6,-13.9 0.7,-0.9 1.2,-2 1.1,-3.2 0.3,0.1 0.6,0.1 0.9,0.1 1,-0.1 1.8,-0.5 2.5,-1.3 1.4,-1.5 2.6,-3.4 5.1,-3.4 0.1,0 0.2,0 0.2,0 0,0.7 0.1,1.3 0.1,2 0,0.6 -0.1,1.3 -0.1,1.9 -0.1,3 -0.1,6 -0.2,9 0,1.3 0,2.7 0,4 0.2,1 0.1,2 0.2,3.1 0.1,2.3 0.1,4.6 0.2,6.9 -0.5,0.7 -1.2,1.3 -1.9,1.9 0,2.5 0.6,4.5 3.1,5.5 -0.1,1.2 -0.2,2.6 -0.3,4.5 0,0.1 0.5,1.1 0.9,2.1 1.1,1.2 2.2,1.1 3.5,0.3 0.5,-0.3 0.7,-0.8 0.9,-1.4 1.7,-0.3 3.3,-0.5 5,-0.8 0.4,0.5 0.8,1 1.3,1.4 1.8,0.8 3.5,0.7 5.2,-0.3 l -0.2,-0.3 c -0.7,-1.8 -1.4,-3.6 -2.1,-5.4 -0.1,-0.5 -0.2,-0.9 -0.4,-1.4 0.1,-0.1 0.2,-0.3 0.2,-0.4 -0.1,-0.3 -0.3,-0.5 -0.5,-0.7 -1.6,-9.6 -3,-19.2 -2.2,-28.5 2.7,-2.7 5.3,-3.5 8.3,-2.8 9.9,2.1 19.9,3.7 30,3.2 0.3,0 0.7,0 1,0.1 7.3,0.5 14.2,-0.3 20.2,-5.1 1.8,-1.4 4.1,-2.2 6.1,-3.4 2.1,-1.3 4.1,-2.7 5.6,-3.7 1.5,-3.5 2.7,-6.2 3.9,-9 1.4,-1.6 2.8,-3.3 4.2,-4.9 l 0,0 0,0 c 0.6,-0.7 1.2,-1.4 1.7,-2.1 0.9,-1.1 1.4,-2.9 2.6,-3.4 4,-1.7 8.2,-3.6 12.5,-4.4 7.6,-1.5 14.1,-5.3 20.8,-8.8 0.4,-0.2 0.9,-0.4 1.3,-0.5 0.3,1.3 0.5,2.7 1.4,3.7 l 0,0 c 0.1,0.4 1.3,3.3 2.3,5.8 0,0.1 0,0.2 0,0.2 0.1,0.3 0.2,0.5 0.4,0.8 0.6,1.5 1.1,2.8 1.2,3 0,0 0,0 0,0 0,0.2 0,0.4 0.1,0.5 0.5,2.7 1.6,5.2 2.4,7.9 1.2,1.4 1.8,3 3.4,4.7 0,7.8 0,15.9 0,24.1 0.2,0.1 0.4,0.1 0.6,0.1 0,0 0,0 0,0.1 -0.8,2.3 -0.6,4.6 0.5,6.8 1.5,3 1.4,6.2 0.7,9.2 -0.8,3.3 0.1,5.8 2.2,8.2 1.8,2.1 4.2,2.7 6.5,1.5 1.9,-0.9 3.4,-0.5 5,0 4,1.4 7.8,-0.1 11.6,-0.6 2.2,0 3.7,-1.1 4.5,-3.2 0.1,-0.5 0,-1.1 -0.2,-1.6 -0.1,-0.1 -0.1,-0.1 -0.2,-0.1 0.6,-0.3 0.9,-0.9 0.6,-1.8 -3.6,-1.3 -4.9,-4.4 -5.7,-7.8 -0.2,-0.8 -0.9,-1.5 -1.3,-2.3 l 0,0 0,0 c -0.3,-0.3 -0.7,-0.7 -1,-1 -0.1,-0.7 -0.1,-1.4 -0.2,-2.1 -0.8,-0.6 -1.6,-1.3 -2.5,-1.9 -2.3,-4.8 -2.9,-9.8 -2,-15 1,-6.2 1.9,-12.4 2.8,-18.6 1,-2.2 1.8,-4.5 2.4,-6.9 1,-3.6 1.5,-7.4 2.9,-10.9 2.4,-6.3 5.4,-12.4 8,-18.7 0.7,-1.6 0.5,-3.5 0.8,-5.3 0.6,-0.9 1.2,-1.7 1.9,-2.6 0.9,-0.8 1.7,-1.6 2.6,-2.4 0.5,0.2 1.8,-1.8 1.6,-1.6 1.4,-2 1.2,-1.3 1.7,-2.9 0.1,-0.3 0.2,-0.7 0.3,-1 0.2,-0.3 0.5,-0.6 0.8,-0.9 l 0.1,0 c 0.3,-0.4 0.5,-0.8 1.1,-0.9 0.2,-0.2 0.4,-0.5 0.5,-0.8 0.8,-0.4 2,-0.6 2.4,-1.3 1.2,-1.9 2.1,-4 3.1,-6 2.5,-3.8 6.1,-7.3 7.3,-11.5 1.6,-5.3 1.2,-11.2 -2.1,-16.3 l 0,0 0,0 c 0,-3.3 0,-6.5 0,-10.8 1.4,-4.3 3.2,-9.7 5,-15.4 2.3,0 4.2,0 6.2,0 l 0.2,0 c 1.2,-0.1 2.3,-0.1 3.5,-0.2 1.7,1.4 3.3,1.1 5,-0.1 3.7,-2.6 6.2,-5.8 7.1,-10.4 1.4,-7.5 3.2,-14.9 4.8,-22.3 l 0,0 c 1.6,-0.9 3.3,-1.8 4.8,-2.6 0.1,-1.4 0.2,-2.3 0.2,-3.3 l 0,0 c 0.1,-0.5 0.1,-0.5 0,-1.2 -0.2,-2.3 0.6,-4.7 0.9,-7 1.1,-2.7 3.3,-5.4 0.8,-8.5 0,0 0,0 -0.1,0 1.7,-1.8 3,-3.7 4.2,-5.8 1.5,-2.1 3.2,-6 3.6,-7.2 0.4,-1.2 0.5,-2.3 0.9,-3.5 0.2,-1 0.4,-1.8 0.6,-2.9 0.8,-5.2 2.2,-9.3 3,-15.3 0.8,-5.9 1,-8.4 0.9,-9.1 0.4,-1.8 0.4,-3.7 0.4,-5.7 z M 421.8,480 c 0,0.1 0.1,0.1 0.2,0.2 0,0 -0.1,0 -0.1,0 -0.1,-0.1 -0.1,-0.2 -0.1,-0.2 z" /><g
     style="fill:#ffffff"
     id="g3339"><g
       style="fill:#ffffff"
       id="g3341"><g
         style="fill:#ffffff"
         id="g3343"><path
           id="line3345"
           d="M 803.90002,450.70001 819.20001,497.5"
           style="fill:#ffffff" /></g><g
         style="fill:#ffffff"
         id="g3347"><path
           id="polyline3349"
           d="m 819.2,497.5 26.1,76.9 71.1,0 -105.3,-292 -85.5,0 -108,292 69.3,0 25.6,-76.9 15.8,-46.8 36.9,-109.8 1.8,0 36.9,109.8"
           style="fill:#ffffff" /></g><g
         style="fill:#ffffff"
         id="g3351"><path
           style="fill:#ffffff"
           id="path3353"
           d="m 941.6,572.2 0,-43.7 c 41.7,6.3 70.7,9.5 86.9,9.5 13.8,0 24,-1.3 30.6,-4 6.6,-2.7 9.9,-7.7 9.9,-14.8 l 0,-13.5 c 0,-7.5 -2.1,-12.8 -6.3,-16 -4.2,-3.1 -12.5,-4.7 -24.8,-4.7 l -28.3,0 c -23.1,0 -41,-4.6 -53.5,-13.7 -12.6,-9.1 -18.9,-22.6 -18.9,-40.3 l 0,-26.5 c 0,-18.9 9,-32.3 27,-40.3 18,-7.9 45.1,-11.9 81.5,-11.9 14.4,0 40.2,1.3 77.4,4 l 0,41.7 c -46.8,-3.6 -73.2,-5.4 -79.2,-5.4 -17.7,0 -29.2,1.2 -34.7,3.6 -4.8,2.7 -7.2,7.7 -7.2,14.9 l 0,11.7 c 0,3.9 1.9,7.3 5.9,10.1 3.9,2.9 9.6,4.3 17.1,4.3 l 28.8,0 c 53.4,0 80.1,17.4 80.1,52.2 l 0,27.5 c 0,10.5 -2,19.7 -5.9,27.4 -3.9,7.8 -9,14 -15.3,18.5 -6,4.2 -13.7,7.5 -23.2,9.9 -9.5,2.4 -19.3,4 -29.5,5 -9.3,0.9 -20.1,1.3 -32.4,1.3 -23.5,-0.1 -52.1,-2.3 -86,-6.8 z" /></g><g
         style="fill:#ffffff"
         id="g3355"><path
           style="fill:#ffffff"
           id="path3357"
           d="m 1261.5,578.3 c -6.6,-0.5 -14.7,-1.3 -24.3,-2.5 -9.6,-1.2 -17.5,-3.3 -23.6,-6.3 -6.2,-3 -12.5,-7.5 -19.1,-13.5 -12.3,-10.2 -18.5,-27.6 -18.5,-52.2 l 0,-72.4 c 0,-19.8 4.5,-36.3 13.5,-49.5 3.3,-4.8 8.2,-9.2 14.6,-13.3 6.4,-4 13,-7.3 19.6,-9.7 5.4,-1.8 12.6,-3.3 21.6,-4.5 9,-1.2 16.9,-1.9 23.9,-2.2 l 23.8,0 c 16.8,0 38.8,2.7 66.2,8.1 l 0,43.2 c -30.9,-7.2 -54.6,-10.8 -71.1,-10.8 -30.3,0 -45.5,10.2 -45.5,30.6 l 0,80.1 c 0,23.1 16.7,34.6 50,34.6 16.2,0 39.4,-3.3 69.8,-9.9 l 0,43.2 c -27.3,5.1 -51.9,7.7 -73.8,7.7 -11.5,-0.1 -20.5,-0.3 -27.1,-0.7 z" /></g><g
         style="fill:#ffffff"
         id="g3359"><path
           style="fill:#ffffff"
           id="path3361"
           d="m 1392.9,508.3 0,-78.3 c 0,-27.3 8.8,-47.1 26.3,-59.4 17.5,-12.3 44.6,-18.5 81.2,-18.5 34.5,0 59.8,5.9 75.8,17.8 16,11.9 24.1,31.9 24.1,60.1 l 0,53.1 -141.3,0 0,19.8 c 0,12.6 4.5,21.6 13.5,27 9,5.4 25.2,8.1 48.6,8.1 21.6,0 45.9,-3.1 72.9,-9.5 l 0,41.9 c -26.7,5.7 -55.2,8.5 -85.5,8.5 -77,0 -115.6,-23.5 -115.6,-70.6 z m 144.9,-62.6 0,-31.5 c 0,-7.2 -2.9,-12.6 -8.8,-16.2 -5.8,-3.6 -15.7,-5.4 -29.5,-5.4 -15.9,0 -26.6,1.8 -32,5.4 -5.7,3.9 -8.5,9.3 -8.5,16.2 l 0,31.5 78.8,0 z" /></g><g
         style="fill:#ffffff"
         id="g3363"><path
           style="fill:#ffffff"
           id="path3365"
           d="m 1650.8,356.6 64.8,0 0,26.5 c 5.1,-20.7 28.4,-31 69.8,-31 27.9,0 47.5,5 58.7,15.1 11.2,10.1 16.9,25.9 16.9,47.5 l 0,159.8 -65.7,0 0,-151.3 c 0,-8.4 -0.8,-14.7 -2.5,-18.9 -1.7,-4.2 -5,-7.2 -9.9,-9 -5,-1.8 -12.5,-2.7 -22.7,-2.7 -12.9,0 -22.4,0.8 -28.4,2.5 -6,1.7 -10.1,4.6 -12.1,8.8 -2.1,4.2 -3.2,10.7 -3.2,19.3 l 0,151.2 -65.7,0 0,-217.8 z" /></g><g
         style="fill:#ffffff"
         id="g3367"><path
           style="fill:#ffffff"
           id="path3369"
           d="m 1999.5,577.6 c -7.5,-0.9 -15,-2.7 -22.5,-5.4 -8.4,-2.7 -15.2,-6.4 -20.5,-11.2 -5.3,-4.8 -9.5,-11.4 -12.8,-19.8 -3.6,-8.7 -5.4,-18.7 -5.4,-30.2 l 0,-113.9 -44.1,0 0,-40.5 44.1,0 0,-63 65.7,0 0,63 59.9,0 0,40.5 -59.9,0 0,102.6 c 0,10.5 0.9,18.4 2.7,23.6 1.8,5.3 5.2,9 10.3,11.2 5.1,2.2 12.9,3.4 23.4,3.4 4.2,0 12,-0.7 23.4,-2.2 l 0,41 c -14.1,1.5 -26.3,2.2 -36.5,2.2 -11,0 -20.3,-0.4 -27.8,-1.3 z" /></g></g></g></svg>